<svg height="100" viewBox="0 0 100 100" width="100" xmlns="http://www.w3.org/2000/svg"><g fill="#fff" fill-rule="evenodd"><path d="m43.85 45.44a6 6 0 1 0 12.07 0 6 6 0 1 0 -12.07 0z"/><path d="m49.91 20a25.4 25.4 0 1 0 25.18 25.5c0-13.79-11.24-25.5-25.18-25.5zm16.58 33.69-1.16 1.93a2.66 2.66 0 0 1 -2.13 1.16 2.82 2.82 0 0 1 -.87-.19l-3.19-1.26a14 14 0 0 1 -4.65 2.67l-.58 3.58a2.48 2.48 0 0 1 -2.42 2h-2.41a2.48 2.48 0 0 1 -2.42-2l-.58-3.58a12 12 0 0 1 -4.45-2.51l-3.38 1.26a2.82 2.82 0 0 1 -.87.19 2.52 2.52 0 0 1 -2.13-1.26l-1.16-2a2.41 2.41 0 0 1 .58-3.09l2.8-2.32a12.69 12.69 0 0 1 -.29-2.61 11.81 11.81 0 0 1 .29-2.51l-2.8-2.32a2.39 2.39 0 0 1 -.58-3.09l1.16-2a2.4 2.4 0 0 1 2.13-1.26 2.82 2.82 0 0 1 .87.19l3.38 1.26a13.82 13.82 0 0 1 4.45-2.61l.58-3.38a2.31 2.31 0 0 1 2.42-1.94h2.42a2.32 2.32 0 0 1 2.42 1.84l.58 3.48a13.55 13.55 0 0 1 4.45 2.51l3.38-1.26a2.82 2.82 0 0 1 .87-.19 2.52 2.52 0 0 1 2.13 1.26l1.16 2a2.53 2.53 0 0 1 -.58 3.09l-2.8 2.32a12 12 0 0 1 .29 2.61 11.81 11.81 0 0 1 -.29 2.51l2.8 2.32a2.52 2.52 0 0 1 .58 3.2z"/><path d="m26 64.21h-1.27a4.75 4.75 0 0 0 -4.73 4.74v6.31a4.74 4.74 0 0 0 4.73 4.74h50.54a4.75 4.75 0 0 0 4.73-4.74v-6.31a4.74 4.74 0 0 0 -4.73-4.74h-1.54a30.15 30.15 0 0 1 -47.72 0z"/></g></svg>